<mxfile host="app.diagrams.net" agent="Mozilla/5.0 (Macintosh; Intel Mac OS X 10_15_7) AppleWebKit/537.36 (KHTML, like Gecko) Chrome/139.0.0.0 Safari/537.36" version="28.1.1">
  <diagram name="Sayfa -1" id="xmN1LkDk8YREpjK_uid6">
    <mxGraphModel grid="1" page="1" gridSize="10" guides="1" tooltips="1" connect="1" arrows="1" fold="1" pageScale="1" pageWidth="827" pageHeight="1169" math="0" shadow="0">
      <root>
        <mxCell id="0" />
        <mxCell id="1" parent="0" />
        <mxCell id="rLEUI0qw0l-vAIh4nY5u-1" value="YUMURTA HAZIRLAMA" style="text;html=1;align=center;verticalAlign=middle;whiteSpace=wrap;rounded=0;fontSize=25;" vertex="1" parent="1">
          <mxGeometry x="240" y="30" width="320" height="50" as="geometry" />
        </mxCell>
        <mxCell id="rLEUI0qw0l-vAIh4nY5u-15" style="edgeStyle=orthogonalEdgeStyle;rounded=0;orthogonalLoop=1;jettySize=auto;html=1;entryX=0.5;entryY=0;entryDx=0;entryDy=0;" edge="1" parent="1" source="rLEUI0qw0l-vAIh4nY5u-2" target="rLEUI0qw0l-vAIh4nY5u-3">
          <mxGeometry relative="1" as="geometry" />
        </mxCell>
        <mxCell id="rLEUI0qw0l-vAIh4nY5u-2" value="Başla" style="ellipse;whiteSpace=wrap;html=1;" vertex="1" parent="1">
          <mxGeometry x="330" y="110" width="120" height="80" as="geometry" />
        </mxCell>
        <mxCell id="rLEUI0qw0l-vAIh4nY5u-9" style="edgeStyle=orthogonalEdgeStyle;rounded=0;orthogonalLoop=1;jettySize=auto;html=1;" edge="1" parent="1" source="rLEUI0qw0l-vAIh4nY5u-3" target="rLEUI0qw0l-vAIh4nY5u-7">
          <mxGeometry relative="1" as="geometry" />
        </mxCell>
        <mxCell id="rLEUI0qw0l-vAIh4nY5u-10" style="edgeStyle=orthogonalEdgeStyle;rounded=0;orthogonalLoop=1;jettySize=auto;html=1;entryX=1;entryY=0.5;entryDx=0;entryDy=0;" edge="1" parent="1" source="rLEUI0qw0l-vAIh4nY5u-3" target="rLEUI0qw0l-vAIh4nY5u-5">
          <mxGeometry relative="1" as="geometry" />
        </mxCell>
        <mxCell id="rLEUI0qw0l-vAIh4nY5u-11" style="edgeStyle=orthogonalEdgeStyle;rounded=0;orthogonalLoop=1;jettySize=auto;html=1;" edge="1" parent="1" source="rLEUI0qw0l-vAIh4nY5u-3" target="rLEUI0qw0l-vAIh4nY5u-6">
          <mxGeometry relative="1" as="geometry" />
        </mxCell>
        <mxCell id="rLEUI0qw0l-vAIh4nY5u-3" value="Yumurta Nasıl Olacak?" style="rhombus;whiteSpace=wrap;html=1;" vertex="1" parent="1">
          <mxGeometry x="305" y="240" width="170" height="180" as="geometry" />
        </mxCell>
        <mxCell id="rLEUI0qw0l-vAIh4nY5u-21" style="edgeStyle=orthogonalEdgeStyle;rounded=0;orthogonalLoop=1;jettySize=auto;html=1;entryX=0.5;entryY=0;entryDx=0;entryDy=0;" edge="1" parent="1" source="rLEUI0qw0l-vAIh4nY5u-5" target="rLEUI0qw0l-vAIh4nY5u-16">
          <mxGeometry relative="1" as="geometry" />
        </mxCell>
        <mxCell id="rLEUI0qw0l-vAIh4nY5u-5" value="Çırpılmış&lt;span style=&quot;color: rgba(0, 0, 0, 0); font-family: monospace; font-size: 0px; text-align: start; text-wrap-mode: nowrap;&quot;&gt;%3CmxGraphModel%3E%3Croot%3E%3CmxCell%20id%3D%220%22%2F%3E%3CmxCell%20id%3D%221%22%20parent%3D%220%22%2F%3E%3CmxCell%20id%3D%222%22%20value%3D%22Evet%22%20style%3D%22text%3Bhtml%3D1%3Balign%3Dcenter%3BverticalAlign%3Dmiddle%3BwhiteSpace%3Dwrap%3Brounded%3D0%3B%22%20vertex%3D%221%22%20parent%3D%221%22%3E%3CmxGeometry%20x%3D%22445%22%20y%3D%22485%22%20width%3D%2260%22%20height%3D%2230%22%20as%3D%22geometry%22%2F%3E%3C%2FmxCell%3E%3C%2Froot%3E%3C%2FmxGraphModel%3E&lt;/span&gt;" style="rounded=0;whiteSpace=wrap;html=1;" vertex="1" parent="1">
          <mxGeometry x="60" y="300" width="120" height="60" as="geometry" />
        </mxCell>
        <mxCell id="rLEUI0qw0l-vAIh4nY5u-38" style="edgeStyle=orthogonalEdgeStyle;rounded=0;orthogonalLoop=1;jettySize=auto;html=1;entryX=0.5;entryY=0;entryDx=0;entryDy=0;" edge="1" parent="1" source="rLEUI0qw0l-vAIh4nY5u-6" target="rLEUI0qw0l-vAIh4nY5u-35">
          <mxGeometry relative="1" as="geometry" />
        </mxCell>
        <mxCell id="rLEUI0qw0l-vAIh4nY5u-6" value="Rafadan" style="rounded=0;whiteSpace=wrap;html=1;" vertex="1" parent="1">
          <mxGeometry x="620" y="300" width="120" height="60" as="geometry" />
        </mxCell>
        <mxCell id="rLEUI0qw0l-vAIh4nY5u-32" style="edgeStyle=orthogonalEdgeStyle;rounded=0;orthogonalLoop=1;jettySize=auto;html=1;" edge="1" parent="1" source="rLEUI0qw0l-vAIh4nY5u-7" target="rLEUI0qw0l-vAIh4nY5u-30">
          <mxGeometry relative="1" as="geometry" />
        </mxCell>
        <mxCell id="rLEUI0qw0l-vAIh4nY5u-7" value="Tek Göz" style="rounded=0;whiteSpace=wrap;html=1;" vertex="1" parent="1">
          <mxGeometry x="330" y="510" width="120" height="60" as="geometry" />
        </mxCell>
        <mxCell id="rLEUI0qw0l-vAIh4nY5u-12" value="1" style="text;html=1;align=center;verticalAlign=middle;whiteSpace=wrap;rounded=0;" vertex="1" parent="1">
          <mxGeometry x="260" y="300" width="60" height="30" as="geometry" />
        </mxCell>
        <mxCell id="rLEUI0qw0l-vAIh4nY5u-13" value="2" style="text;html=1;align=center;verticalAlign=middle;whiteSpace=wrap;rounded=0;" vertex="1" parent="1">
          <mxGeometry x="340" y="420" width="60" height="30" as="geometry" />
        </mxCell>
        <mxCell id="rLEUI0qw0l-vAIh4nY5u-14" value="3" style="text;html=1;align=center;verticalAlign=middle;whiteSpace=wrap;rounded=0;" vertex="1" parent="1">
          <mxGeometry x="470" y="300" width="60" height="30" as="geometry" />
        </mxCell>
        <mxCell id="rLEUI0qw0l-vAIh4nY5u-25" style="edgeStyle=orthogonalEdgeStyle;rounded=0;orthogonalLoop=1;jettySize=auto;html=1;entryX=0.5;entryY=0;entryDx=0;entryDy=0;" edge="1" parent="1" source="rLEUI0qw0l-vAIh4nY5u-16" target="rLEUI0qw0l-vAIh4nY5u-17">
          <mxGeometry relative="1" as="geometry" />
        </mxCell>
        <mxCell id="rLEUI0qw0l-vAIh4nY5u-16" value="Yumurtayı Kır" style="rounded=0;whiteSpace=wrap;html=1;" vertex="1" parent="1">
          <mxGeometry x="60" y="420" width="120" height="60" as="geometry" />
        </mxCell>
        <mxCell id="rLEUI0qw0l-vAIh4nY5u-17" value="Süt ve Yağ Karıştır" style="rounded=0;whiteSpace=wrap;html=1;" vertex="1" parent="1">
          <mxGeometry x="60" y="524.5" width="120" height="60" as="geometry" />
        </mxCell>
        <mxCell id="rLEUI0qw0l-vAIh4nY5u-26" style="edgeStyle=orthogonalEdgeStyle;rounded=0;orthogonalLoop=1;jettySize=auto;html=1;" edge="1" parent="1" source="rLEUI0qw0l-vAIh4nY5u-18" target="rLEUI0qw0l-vAIh4nY5u-19">
          <mxGeometry relative="1" as="geometry" />
        </mxCell>
        <mxCell id="rLEUI0qw0l-vAIh4nY5u-18" value="Tavayı ısıt ve yağ ekle" style="rounded=0;whiteSpace=wrap;html=1;" vertex="1" parent="1">
          <mxGeometry x="60" y="630" width="120" height="60" as="geometry" />
        </mxCell>
        <mxCell id="rLEUI0qw0l-vAIh4nY5u-27" style="edgeStyle=orthogonalEdgeStyle;rounded=0;orthogonalLoop=1;jettySize=auto;html=1;entryX=0.5;entryY=0;entryDx=0;entryDy=0;" edge="1" parent="1" source="rLEUI0qw0l-vAIh4nY5u-19" target="rLEUI0qw0l-vAIh4nY5u-20">
          <mxGeometry relative="1" as="geometry" />
        </mxCell>
        <mxCell id="rLEUI0qw0l-vAIh4nY5u-19" value="Yumurta süt ve yap karışımını tavaya dök" style="rounded=0;whiteSpace=wrap;html=1;" vertex="1" parent="1">
          <mxGeometry x="70" y="760" width="120" height="60" as="geometry" />
        </mxCell>
        <mxCell id="rLEUI0qw0l-vAIh4nY5u-29" style="edgeStyle=orthogonalEdgeStyle;rounded=0;orthogonalLoop=1;jettySize=auto;html=1;entryX=0;entryY=0.5;entryDx=0;entryDy=0;" edge="1" parent="1" source="rLEUI0qw0l-vAIh4nY5u-20" target="rLEUI0qw0l-vAIh4nY5u-28">
          <mxGeometry relative="1" as="geometry">
            <Array as="points">
              <mxPoint x="130" y="1010" />
            </Array>
          </mxGeometry>
        </mxCell>
        <mxCell id="rLEUI0qw0l-vAIh4nY5u-20" value="Karıştırmaya Devam Et" style="rounded=0;whiteSpace=wrap;html=1;" vertex="1" parent="1">
          <mxGeometry x="70" y="890" width="120" height="60" as="geometry" />
        </mxCell>
        <mxCell id="rLEUI0qw0l-vAIh4nY5u-23" style="edgeStyle=orthogonalEdgeStyle;rounded=0;orthogonalLoop=1;jettySize=auto;html=1;entryX=0.442;entryY=0.033;entryDx=0;entryDy=0;entryPerimeter=0;" edge="1" parent="1" source="rLEUI0qw0l-vAIh4nY5u-17" target="rLEUI0qw0l-vAIh4nY5u-18">
          <mxGeometry relative="1" as="geometry" />
        </mxCell>
        <mxCell id="rLEUI0qw0l-vAIh4nY5u-28" value="Son" style="ellipse;whiteSpace=wrap;html=1;" vertex="1" parent="1">
          <mxGeometry x="330" y="970" width="120" height="80" as="geometry" />
        </mxCell>
        <mxCell id="rLEUI0qw0l-vAIh4nY5u-33" style="edgeStyle=orthogonalEdgeStyle;rounded=0;orthogonalLoop=1;jettySize=auto;html=1;" edge="1" parent="1" source="rLEUI0qw0l-vAIh4nY5u-30" target="rLEUI0qw0l-vAIh4nY5u-31">
          <mxGeometry relative="1" as="geometry" />
        </mxCell>
        <mxCell id="rLEUI0qw0l-vAIh4nY5u-30" value="Tavayı Isıt ve Yağ Ekle" style="rounded=0;whiteSpace=wrap;html=1;" vertex="1" parent="1">
          <mxGeometry x="330" y="670" width="120" height="60" as="geometry" />
        </mxCell>
        <mxCell id="rLEUI0qw0l-vAIh4nY5u-34" style="edgeStyle=orthogonalEdgeStyle;rounded=0;orthogonalLoop=1;jettySize=auto;html=1;entryX=0.5;entryY=0;entryDx=0;entryDy=0;" edge="1" parent="1" source="rLEUI0qw0l-vAIh4nY5u-31" target="rLEUI0qw0l-vAIh4nY5u-28">
          <mxGeometry relative="1" as="geometry" />
        </mxCell>
        <mxCell id="rLEUI0qw0l-vAIh4nY5u-31" value="Yumurtayı Yavaya Kır" style="rounded=0;whiteSpace=wrap;html=1;" vertex="1" parent="1">
          <mxGeometry x="330" y="790" width="120" height="60" as="geometry" />
        </mxCell>
        <mxCell id="rLEUI0qw0l-vAIh4nY5u-39" style="edgeStyle=orthogonalEdgeStyle;rounded=0;orthogonalLoop=1;jettySize=auto;html=1;" edge="1" parent="1" source="rLEUI0qw0l-vAIh4nY5u-35" target="rLEUI0qw0l-vAIh4nY5u-36">
          <mxGeometry relative="1" as="geometry" />
        </mxCell>
        <mxCell id="rLEUI0qw0l-vAIh4nY5u-35" value="Suyu Kaynat" style="rounded=0;whiteSpace=wrap;html=1;" vertex="1" parent="1">
          <mxGeometry x="620" y="450" width="120" height="60" as="geometry" />
        </mxCell>
        <mxCell id="rLEUI0qw0l-vAIh4nY5u-37" style="edgeStyle=orthogonalEdgeStyle;rounded=0;orthogonalLoop=1;jettySize=auto;html=1;entryX=1;entryY=0.5;entryDx=0;entryDy=0;" edge="1" parent="1" source="rLEUI0qw0l-vAIh4nY5u-36" target="rLEUI0qw0l-vAIh4nY5u-28">
          <mxGeometry relative="1" as="geometry">
            <Array as="points">
              <mxPoint x="680" y="1010" />
            </Array>
          </mxGeometry>
        </mxCell>
        <mxCell id="rLEUI0qw0l-vAIh4nY5u-36" value="Yumurtayı Kaynamış Suya At" style="rounded=0;whiteSpace=wrap;html=1;" vertex="1" parent="1">
          <mxGeometry x="620" y="570" width="120" height="60" as="geometry" />
        </mxCell>
      </root>
    </mxGraphModel>
  </diagram>
</mxfile>
